# xmcd
#
# Track frame offsets: 
#        150
#        24511
#        42701
#        56142
#        73307
#        91297
#        111125
#        128404
#        148206
#
# Disc length: 2216 seconds
#
# Revision: 0
# Processed by: cddbd v1.5.2PL0 Copyright (c) Steve Scherf et al.
# Submitted via: ExactAudioCopy v1.0b1
#
DISCID=8608a609
DTITLE=Albert King - Lovejoy
DYEAR=1982
DGENRE=Modern Electric Blues
TTITLE0=Honky Tonk Woman
TTITLE1=Bay Area Blues
TTITLE2=Corina Corina
TTITLE3=She Caught The Katy (And Left Me A Mule To Ride)
TTITLE4=For The Love Of A Woman
TTITLE5=Lovejoy, ILL.
TTITLE6=Everybody Wants To Go To Heaven
TTITLE7=Going Back To Iuka
TTITLE8=Like A Road Leading Home
EXTD=
EXTT0=
EXTT1=
EXTT2=
EXTT3=
EXTT4=
EXTT5=
EXTT6=
EXTT7=
EXTT8=
PLAYORDER=
